<svg data-v-423bf9ae="" xmlns="http://www.w3.org/2000/svg" viewBox="0 0 369 90" class="iconLeft"><!----><!----><!----><g data-v-423bf9ae="" id="9be2b49e-24aa-4fb9-8075-28c8d844794b" fill="#eeeeee" transform="matrix(6.08519290965367,0,0,6.08519290965367,109.9708308916303,-8.853955239594285)"><path d="M6.16 8.47L10.33 3.92L7.32 3.92L3.64 8.19L3.64 3.92L1.12 3.92L1.12 13.58L3.64 13.58L3.64 10.61L4.33 9.86L7.06 13.58L10.21 13.58ZM15.09 13.58L17.56 13.58C17.44 12.75 17.42 12.25 17.42 11.69L17.42 9.59C17.42 9.13 17.40 8.69 17.37 8.32C17.26 6.96 16.45 5.91 14.08 5.91C12.19 5.91 10.64 6.90 10.63 8.65L13.01 8.64C13.05 7.99 13.38 7.62 13.97 7.62C14.52 7.62 14.83 7.95 14.87 8.33C14.90 8.57 14.90 8.72 14.90 8.88L14.90 8.99L14.42 8.99C11.89 8.99 10.37 9.97 10.37 11.56C10.37 13.01 11.54 13.78 12.77 13.78C13.45 13.78 14.08 13.61 14.62 13.27L14.92 12.49ZM13.80 12.07C13.30 12.07 12.95 11.82 12.95 11.37C12.95 10.63 13.76 10.33 14.90 10.42L14.90 10.91C14.90 11.69 14.31 12.07 13.80 12.07ZM23.31 13.58L25.77 13.58C25.66 12.75 25.63 12.25 25.63 11.69L25.63 9.59C25.63 9.13 25.62 8.69 25.59 8.32C25.48 6.96 24.67 5.91 22.30 5.91C20.41 5.91 18.86 6.90 18.84 8.65L21.22 8.64C21.27 7.99 21.60 7.62 22.19 7.62C22.74 7.62 23.04 7.95 23.09 8.33C23.11 8.57 23.11 8.72 23.11 8.88L23.11 8.99L22.64 8.99C20.10 8.99 18.59 9.97 18.59 11.56C18.59 13.01 19.75 13.78 20.99 13.78C21.67 13.78 22.30 13.61 22.83 13.27L23.14 12.49ZM22.02 12.07C21.52 12.07 21.17 11.82 21.17 11.37C21.17 10.63 21.98 10.33 23.11 10.42L23.11 10.91C23.11 11.69 22.53 12.07 22.02 12.07ZM35.01 6.10L32.26 6.10L30.73 11.58L29.19 6.10L26.39 6.10L29.34 13.58L32.06 13.58ZM40.04 13.58L42.50 13.58C42.39 12.75 42.36 12.25 42.36 11.69L42.36 9.59C42.36 9.13 42.35 8.69 42.32 8.32C42.21 6.96 41.40 5.91 39.03 5.91C37.14 5.91 35.59 6.90 35.57 8.65L37.95 8.64C38.00 7.99 38.33 7.62 38.92 7.62C39.47 7.62 39.77 7.95 39.82 8.33C39.84 8.57 39.84 8.72 39.84 8.88L39.84 8.99L39.37 8.99C36.83 8.99 35.32 9.97 35.32 11.56C35.32 13.01 36.48 13.78 37.72 13.78C38.40 13.78 39.03 13.61 39.56 13.27L39.87 12.49ZM38.75 12.07C38.25 12.07 37.90 11.82 37.90 11.37C37.90 10.63 38.71 10.33 39.84 10.42L39.84 10.91C39.84 11.69 39.26 12.07 38.75 12.07Z"></path></g><!----><g data-v-423bf9ae="" id="469496f3-7af6-474f-baf4-bc839b7ff1ff" transform="matrix(1.3347046424243658,0,0,1.3347046424243658,-17.99253369281803,-24.124100714632135)" stroke="none" fill="#00adb5"><path d="M37.406 40.596c2.149-.978 4.371-1.99 6.708-2.64 2.294-.638 7.031-1.963 6.162-5.879 2.37-.111 7.473-.306 11.722-.169 2.971.097 10.073-.008 11.877-3.067.46-.782.78-2.098-.31-3.928-.85-1.426-2.244-1.49-3.261-1.536-1.201-.054-2.39-.065-3.804-.065-1.697 0-3.443-.236-5.133-.465l-.314-.042a175.538 175.538 0 0 1-11.105-1.874c-1.46-.294-2.913-.659-4.32-1.012-4.253-1.07-8.657-2.173-13.465-1.315-2.717.485-5.262 1.523-7.724 2.527l-1.152.468c-2.11.848-4.302 1.631-6.42 2.388-.824.294-1.647.588-2.468.886a1 1 0 0 0 .684 1.88c.817-.297 1.636-.59 2.457-.883 2.136-.763 4.346-1.552 6.493-2.415l1.161-.472c2.366-.964 4.812-1.962 7.32-2.41 4.39-.785 8.391.22 12.627 1.285 1.429.36 2.906.73 4.412 1.034 3.809.766 7.588 1.403 11.233 1.895l.314.042c1.754.237 3.568.483 5.4.483 1.387 0 2.55.01 3.712.063 1.035.047 1.375.127 1.635.563.713 1.195.406 1.716.305 1.887-.96 1.627-5.904 2.223-10.089 2.084-4.869-.16-10.81.113-12.65.208-1.406-1.904-3.846-1.988-5.13-1.684l-15.25 2.31a1 1 0 0 0 .3 1.978l15.324-2.325c.305-.068 3-.594 3.658 2.041.44 1.765-1.575 2.713-4.794 3.608-2.43.676-4.725 1.72-6.944 2.73-1.1.501-2.237 1.02-3.363 1.478-1.537.627-3.324 1.316-5.063 1.565-2.978.425-6.109.283-9.138.144-1.37-.062-2.785-.127-4.175-.139-.584-.025-1.004.44-1.008.991s.439 1.004.99 1.01c1.354.011 2.75.074 4.101.136 1.54.07 3.106.142 4.678.142 1.613 0 3.232-.075 4.835-.305 1.964-.28 3.887-1.02 5.535-1.692 1.163-.474 2.32-1 3.437-1.509zM86.239 83.933l-.496-2.413c-2.08-10.111-4.983-20.197-7.542-28.857-.295-.999-.588-1.998-.878-2.998a1 1 0 0 0-1.725-.367l-4.927 5.837a331.57 331.57 0 0 0-1.348-4.954c-1.825-6.389-6.061-6.475-6.241-6.475 0 0-5.86-.018-9.32-.018-3.915 0-6.41 3.26-6.529 3.42L43.42 52.46l-12.878 2.28a1 1 0 0 0-.823 1.062c.018.242.036.561.057.94.309 5.582 1.01 10.888 4.014 11.91 2.83.962 5.823 1.227 8.718 1.484.603.053 1.206.106 1.806.166.24 2.646 1.015 10.831 1.697 13.833a1 1 0 0 0 1.95-.443c-.771-3.393-1.718-14.276-1.728-14.385a1 1 0 0 0-.885-.908c-.883-.098-1.772-.177-2.663-.255-2.778-.247-5.65-.501-8.252-1.386-1.42-.483-2.315-3.89-2.66-10.127l-.004-.076 12.402-2.197a.999.999 0 0 0 .64-.404l4.036-5.666c.02-.026 1.988-2.601 4.914-2.601 3.44 0 9.25.018 9.3.018.12.003 2.949.158 4.339 5.025.32 1.118.837 3.03 1.458 5.368l-5.505.794c-2.611.286-3.766 2.367-4.785 4.203-.29.523-.565 1.017-.862 1.456-.09.135-.191.308-.3.5-.135.24-.419.739-.515.816a1.036 1.036 0 0 0-.167.064c-.088.043-2.172 1.056-3.612 2.016a1 1 0 0 0-.442.906c.022.304.615 7.439 6.148 8.167 3.273.43 5.6.543 6.804.57l.847 9.207a1 1 0 1 0 1.991-.184l-.93-10.109a1.004 1.004 0 0 0-1.02-.907c-.028 0-2.752.056-7.43-.56-3.174-.417-4.1-4.272-4.34-5.756 1.136-.696 2.496-1.373 2.796-1.521.792-.28 1.263-1.11 1.61-1.723.08-.14.15-.267.215-.364.348-.512.657-1.069.955-1.608 1.04-1.874 1.779-3.023 3.288-3.189l5.77-.832 1.284-.185a.998.998 0 0 0 .621-.344l.018-.021 4.628-5.483.358 1.217c2.547 8.622 5.437 18.66 7.5 28.694l.497 2.412a1 1 0 0 0 1.959-.402z"></path></g><!----></svg>
